<svg width="32" height="32" viewBox="0 0 32 32" fill="none" xmlns="http://www.w3.org/2000/svg">
<g clip-path="url()">
<path d="M16 11.6364C18.4073 11.6364 20.3636 13.5927 20.3636 16C20.3636 18.4073 18.4073 20.3637 16 20.3637C13.5927 20.3637 11.6364 18.4073 11.6364 16C11.6364 13.5927 13.5928 11.6364 16 11.6364Z" fill="#0883D1"/>
<path d="M16 5.09094C23.2727 5.09094 29.4836 9.61453 32 16C29.4836 22.3855 23.2727 26.9091 16 26.9091C8.71998 26.9091 2.51632 22.3855 -6.86646e-05 16C2.51632 9.61453 8.71998 5.09094 16 5.09094ZM16 23.2727C20.0145 23.2727 23.2727 20.0145 23.2727 16C23.2727 11.9854 20.0145 8.72728 16 8.72728C11.9854 8.72728 8.72721 11.9855 8.72721 16C8.72721 20.0146 11.9854 23.2727 16 23.2727Z" fill="#0883D1"/>
</g>
<defs>
<clipPath >
<rect width="32" height="32" fill="white" transform="matrix(-1 0 0 1 32 0)"/>
</clipPath>
</defs>
</svg>
