<svg width="32" height="32" viewBox="0 0 32 32" fill="none" xmlns="http://www.w3.org/2000/svg">
<g clip-path="url()">
<path d="M15.7565 10.9321L20.3373 15.5129L20.3591 15.273C20.3591 12.8662 18.4032 10.9103 15.9964 10.9103L15.7565 10.9321Z" fill="#0883D1"/>
<path d="M15.9964 8.00192C20.01 8.00192 23.2675 11.2594 23.2675 15.273C23.2675 16.211 23.0784 17.1053 22.7512 17.9269L27.0048 22.1805C29.2007 20.3482 30.9312 17.9779 32 15.273C29.477 8.88904 23.2748 4.36641 15.9964 4.36641C13.9605 4.36641 12.0119 4.72994 10.2014 5.38434L13.3425 8.51815C14.1641 8.19824 15.0584 8.00192 15.9964 8.00192Z" fill="#0883D1"/>
<path d="M1.45419 4.03909L4.7698 7.3547L5.43149 8.01639C3.03204 9.89233 1.13429 12.3863 0 15.2729C2.51581 21.6569 8.72529 26.1795 15.9964 26.1795C18.2504 26.1795 20.4027 25.7432 22.3731 24.9507L22.9912 25.5687L27.2303 29.815L29.0844 27.9682L3.30832 2.18497L1.45419 4.03909ZM9.49605 12.0737L11.7428 14.3204C11.6774 14.6331 11.6337 14.9457 11.6337 15.2729C11.6337 17.6796 13.5896 19.6355 15.9964 19.6355C16.3236 19.6355 16.6363 19.5919 16.9417 19.5265L19.1884 21.7732C18.2213 22.2531 17.1453 22.544 15.9964 22.544C11.9828 22.544 8.72529 19.2865 8.72529 15.2729C8.72529 14.1241 9.01616 13.048 9.49605 12.0737Z" fill="#0883D1"/>
</g>
<defs>
<clipPath >
<rect width="32" height="32" fill="white"/>
</clipPath>
</defs>
</svg>
